# xmcd CD database file
#
# Track frame offsets:
#	182
#	15560
#	30365
#	41632
#	50572
#	63190
#	77872
#	89305
#	103915
#	112695
#	124480
#	138802
#
# Disc length: 2031 seconds
#
# Revision: 0
# Processed by: cddbd v1.5.1PL0 Copyright (c) Steve Scherf et al.
# Submitted via: CDex 1.51
#
DISCID=9407ed0c
DTITLE=SARAH VAUGHAN - THINKING OF YOU
DYEAR=1995
DGENRE=Blues
TTITLE0=THE NEARNESS OF YOU
TTITLE1=SUMMERTIME
TTITLE2=I CRIED FOR YOU
TTITLE3=OOH, WHAT-CHA DOIN'TO ME
TTITLE4=PRELUDE TO A KISS
TTITLE5=BODY AND SOUL
TTITLE6=PERDIDO
TTITLE7=LOVERMAN
TTITLE8=WHATS IS THES THING CALLED LOVE
TTITLE9=POLKA DOTS AND MOONBEAMS
TTITLE10=EAST OF THE SUN
TTITLE11=THINKING OF YOU
EXTD=YEAR: 1995
EXTT0=
EXTT1=
EXTT2=
EXTT3=
EXTT4=
EXTT5=
EXTT6=
EXTT7=
EXTT8=
EXTT9=
EXTT10=
EXTT11=
PLAYORDER=
